# xmcd
#
# Track frame offsets:
#	182
#	13800
#	25907
#	38307
#	51671
#	64014
#	76108
#	86089
#	98990
#	106616
#	119208
#	133165
#	144407
#	157188
#	168362
#	181204
#	195241
#	208589
#
# Disc length: 2940 seconds
#
# Revision: 3
# Processed by: cddbd v1.5.2PL0 Copyright (c) Steve Scherf et al.
# Submitted via: audiograbber 1.83.01
#
DISCID=f20b7a12
DTITLE=Various Artist - Hillbilly Blues - 1928-1946, Volume #2
DYEAR=1997
DGENRE=blues
TTITLE0=Shelton Brothers - Someday Baby
TTITLE1=Sunshine Boys - Worried Man's Blues
TTITLE2=Bob Wills - Honey What You Gonna Do?
TTITLE3=Ernest Tubb - Mean Mama Blues
TTITLE4=Sunshine Boys - What's the Matter with Deep Elm?
TTITLE5=Moon Mullican - Lay Me down Beside My Darling
TTITLE6=Les Paul - Midnight Special
TTITLE7=Johnnie Lee Wills - Milk Cow Blues
TTITLE8=Ernest Tubb - Fort Worth Jail
TTITLE9=Merle Travis - That's All
TTITLE10=T. Texas Tyler - T. Texas' Blues
TTITLE11=Buster Coward - Driftin' Texas Sand
TTITLE12=Delmore Brothers - Going Back to the Blue Ridge Mountain
TTITLE13=Jack Guthrie - The Clouds Rained Trouble down
TTITLE14=Chet Atkins - Guitar Blues
TTITLE15=Bill Monroe - Blue Yodel #4
TTITLE16=Gene Sullivan - Kansas City Blues
TTITLE17=Spade Cooley - You Better Do it Now
EXTD=
EXTT0=
EXTT1=
EXTT2=
EXTT3=
EXTT4=
EXTT5=
EXTT6=
EXTT7=
EXTT8=
EXTT9=
EXTT10=
EXTT11=
EXTT12=
EXTT13=
EXTT14=
EXTT15=
EXTT16=
EXTT17=
PLAYORDER=
